<svg xmlns="http://www.w3.org/2000/svg" xmlns:xlink="http://www.w3.org/1999/xlink" viewBox="-20 17 940 667" style="top:10px" version="1.1">
<line x1="0" x2="50" y1="306" y2="306" stroke="#000000" style="stroke-dasharray:6, 6;stroke-width:2;opacity:0.5;shape-rendering:crispedges"/>
<line x1="846" x2="896" y1="306" y2="306" stroke="#000000" style="stroke-dasharray:6, 6;stroke-width:2;opacity:0.5;shape-rendering:crispedges"/>
<line x1="50" x2="306" y1="306" y2="306" stroke="#000000" style="stroke-dasharray:6, 6;stroke-width:2;opacity:0.5;shape-rendering:crispedges"/>
<line x1="594" x2="846" y1="306" y2="306" stroke="#000000" style="stroke-dasharray:6, 6;stroke-width:2;opacity:0.5;shape-rendering:crispedges"/>
<line x1="306" x2="306" y1="392" y2="545" stroke="#000000" style="stroke-dasharray:6, 6;stroke-width:2;opacity:0.5;shape-rendering:crispedges"/>
<line x1="594" x2="594" y1="392" y2="545" stroke="#000000" style="stroke-dasharray:6, 6;stroke-width:2;opacity:0.5;shape-rendering:crispedges"/>
<line x1="654" x2="714" y1="522" y2="664" stroke="#000000" style="stroke-dasharray:6, 6;stroke-width:2;opacity:0.5;shape-rendering:crispedges"/>
<line x1="246" x2="186" y1="522" y2="664" stroke="#000000" style="stroke-dasharray:6, 6;stroke-width:2;opacity:0.5;shape-rendering:crispedges"/>
<g stroke="#000000" fill="none" style="stroke-width:2;z-index:-1">
<line x1="306" x2="306" y1="50" y2="392" style="shape-rendering:crispedges"/>
<line x1="594" x2="594" y1="50" y2="392" style="shape-rendering:crispedges"/>
<line x1="306" x2="594" y1="392" y2="392" style="shape-rendering:crispedges"/>
<line x1="396" x2="504" y1="120.2" y2="120.2" style="shape-rendering:crispedges"/>
<line x1="378" x2="378" y1="125.6" y2="148.1" style="shape-rendering:crispedges"/>
<line x1="522" x2="522" y1="125.6" y2="148.1" style="shape-rendering:crispedges"/>
<line x1="54" x2="54" y1="50" y2="306" style="shape-rendering:crispedges"/>
<line x1="846" x2="846" y1="50" y2="306" style="shape-rendering:crispedges"/>
<path d="M54,305A427.5,427.5 1 0,0 846,305"/>
<path d="M342,392A108,108 1 0,1 558,392" style="stroke-dasharray:22.5, 22.5"/>
<path d="M342,392A108,108 1 0,0 558,392"/>
<circle cx="450" cy="134.6" r="13.5"/>
<path d="M378,148.1A72,72 1 0,0 522,148.1"/>
<line x1="0" x2="900" y1="50" y2="50" style="shape-rendering:crispedges;stroke-width:2"/>
</g>
<path d="M0,50L0,306L54,306L54,50L0,50" id="zone" class="pages__Path-sc-1n2syxe-0 lnytiM"/>
<path d="M846,50L846,306L900,306L900,50L846,50" id="zone" class="pages__Path-sc-1n2syxe-0 lnytiM"/>
<path d="M54,50L54,306L306,306L306,50L54,50" id="zone" class="pages__Path-sc-1n2syxe-0 lnytiM"/>
<path d="M594,50L594,306L846,306L846,50L594,50" id="zone" class="pages__Path-sc-1n2syxe-0 lnytiM"/>
<path d="M306,50L306,392L594,392L594,50L306,50" id="zone" class="pages__Path-sc-1n2syxe-0 lnytiM"/>
<path d="M594,545L594,392L306,392L306,545A427.5,427.5 1 0,0 594,545" id="zone" class="pages__Path-sc-1n2syxe-0 lnytiM"/>
<path d="M306,545L306,306L54,306A427.5,427.5 1 0,0 306,545" id="zone" class="pages__Path-sc-1n2syxe-0 lnytiM"/>
<path d="M594,545L594,306L846,306A427.5,427.5 0 0,1 594,545" id="zone" class="pages__Path-sc-1n2syxe-0 lnytiM"/>
<path d="M246,521L186,664L0,664L0,306L54,306A427.5,427.5 0 0,0 246,521" id="zone" class="pages__Path-sc-1n2syxe-0 lnytiM"/>
<path d="M654,521L714,664L900,664L900,306L846,306A427.5,427.5 0 0,1 654,521" id="zone" class="pages__Path-sc-1n2syxe-0 lnytiM"/>
<path d="M246,521L186,664L714,664L654,521A427.5,427.5 0 0,1 246,521" id="zone" class="pages__Path-sc-1n2syxe-0 lnytiM"/>
<path d="M0,50L0,306L54,306L54,50L0,50" fill="#ffffff" id="zone" class="pages__Pathbasket-sc-1n2syxe-1 jKeeNf"/>
<path d="M846,50L846,306L900,306L900,50L846,50" fill="#ffffff" id="zone" class="pages__Pathbasket-sc-1n2syxe-1 gRHdSl"/>
<path d="M54,50L54,306L306,306L306,50L54,50" fill="#ffffff" id="zone" class="pages__Pathbasket-sc-1n2syxe-1 gRHdSl"/>
<path d="M594,50L594,306L846,306L846,50L594,50" fill="#ffffff" id="zone" class="pages__Pathbasket-sc-1n2syxe-1 gRHdSl"/>
<path d="M306,50L306,392L594,392L594,50L306,50" fill="#ffffff" id="zone" class="pages__Pathbasket-sc-1n2syxe-1 gRHdSl"/>
<path d="M594,545L594,392L306,392L306,545A427.5,427.5 1 0,0 594,545" fill="#ffffff" id="zone" class="pages__Pathbasket-sc-1n2syxe-1 gRHdSl"/>
<path d="M306,545L306,306L54,306A427.5,427.5 1 0,0 306,545" fill="#ffffff" id="zone" class="pages__Pathbasket-sc-1n2syxe-1 gRHdSl"/>
<path d="M594,545L594,306L846,306A427.5,427.5 0 0,1 594,545" fill="#ffffff" id="zone" class="pages__Pathbasket-sc-1n2syxe-1 gRHdSl"/>
<path d="M246,521L186,664L0,664L0,306L54,306A427.5,427.5 0 0,0 246,521" fill="#ffffff" id="zone" class="pages__Pathbasket-sc-1n2syxe-1 gRHdSl"/>
<path d="M654,521L714,664L900,664L900,306L846,306A427.5,427.5 0 0,1 654,521" fill="#ffffff" id="zone" class="pages__Pathbasket-sc-1n2syxe-1 gRHdSl"/>
<path d="M246,521L186,664L714,664L654,521A427.5,427.5 0 0,1 246,521" fill="#ffffff" id="zone" class="pages__Pathbasket-sc-1n2syxe-1 gRHdSl"/>
<defs>
<pattern id="img1" patternUnits="objectBoundingBox" width="100%" height="100%">
<image href="./titleIcon.svg" x="2" y="100" width="50" height="50"/>
</pattern>
<pattern id="img2" patternUnits="objectBoundingBox" width="100%" height="100%">
<image href="./titleIcon.svg" x="100" y="100" width="50" height="50"/>
</pattern>
<pattern id="img3" patternUnits="objectBoundingBox" width="100%" height="100%">
<image href="./titleIcon.svg" x="118" y="180" width="50" height="50"/>
</pattern>
<pattern id="img4" patternUnits="objectBoundingBox" width="100%" height="100%">
<image href="./titleIcon.svg" x="118" y="40" width="50" height="50"/>
</pattern>
<pattern id="img5" patternUnits="objectBoundingBox" width="100%" height="100%">
<image href="./titleIcon.svg" x="130" y="70" width="50" height="50"/>
</pattern>
<pattern id="img6" patternUnits="objectBoundingBox" width="100%" height="100%">
<image href="./titleIcon.svg" x="70" y="70" width="50" height="50"/>
</pattern>
<pattern id="img7" patternUnits="objectBoundingBox" width="100%" height="100%">
<image href="./titleIcon.svg" x="80" y="140" width="50" height="50"/>
</pattern>
<pattern id="img8" patternUnits="objectBoundingBox" width="100%" height="100%">
<image href="./titleIcon.svg" x="110" y="140" width="50" height="50"/>
</pattern>
<pattern id="img9" patternUnits="objectBoundingBox" width="100%" height="100%">
<image href="./titleIcon.svg" x="235" y="60" width="50" height="50"/>
</pattern>
</defs>
</svg>